<svg xmlns="http://www.w3.org/2000/svg" viewBox="0 0 116.27 115.74"><defs><style>.cls-1{fill:#fbb;stroke:#f9e396;stroke-linecap:round;stroke-miterlimit:10;stroke-width:8px;}</style></defs><g id="Layer_2" data-name="Layer 2"><g id="Buttons"><g id="dpnClC"><path class="cls-1" d="M55,4c0,17-.09,33.7-.12,50.41,0,1.27-.32,2.79.25,3.74a5.26,5.26,0,0,0,3.35,2.43c.86.07,2.21-1.46,2.71-2.57s.18-2.5.18-3.77q0-25.05-.07-50.09c22-.52,49.16,19.26,50.92,50.73,1.66,29.81-22.12,55.77-52.43,56.83A54,54,0,0,1,4,58.62C3.48,29.62,27.1,4,55,4Z"/></g></g></g></svg>