<svg xmlns="http://www.w3.org/2000/svg" viewBox="0 0 83.26 55.68"><defs><style>.cls-1{fill:#fbb;stroke:#f9e396;stroke-linecap:round;stroke-linejoin:round;stroke-width:2px;}</style></defs><g id="Layer_2" data-name="Layer 2"><g id="LOOP_" data-name="LOOP!"><path class="cls-1" d="M14.75,13.89C10.61,11.28,6.47,8.67,1.94,5.83c.81-1.37,1.52-2.59,2.49-4.26L82.26,50l-2.52,4.14-9-5.38a64,64,0,0,1-6.09,5.52c-.92.66-2.59.28-3.92.37.36-1.27.4-2.78,1.14-3.74a44.32,44.32,0,0,1,4.82-4.61l-5.3-3.49a37.37,37.37,0,0,1-5.38,4c-.86.44-2.33-.29-3.52-.5a10.84,10.84,0,0,1,1.2-3.14A20.12,20.12,0,0,1,57,40.43c-2.63-2-4.65-4.51-8.13-1.69-.73.59-2.58-.23-3.91-.39.47-1.41.94-2.81,1.58-4.69L39,29v5.65c0,5.64.06,11.28-.05,16.91,0,1-.47,2.53-1.16,2.86s-2.2-.21-3-.81C30.55,50.43,26.49,47,22.14,44a12.66,12.66,0,0,0-5.88-2.06c-3.65-.32-7.36-.12-11-.08C2.4,41.88,1,40.68,1,37.72q.1-9.49,0-19c0-3,1.4-4.16,4.24-4.12,3.1.06,6.19,0,9.29,0Z"/><path class="cls-1" d="M74.4,40.76l-3.56-2.19c2-7,2.31-13.91-1.19-20.21-2.12-3.81-5.57-6.87-8.21-10.43-.65-.87-.49-2.34-.7-3.54,1.14,0,2.55-.45,3.38.05C75,11,80.17,29.21,74.4,40.76Z"/><path class="cls-1" d="M39,18.73,25.06,10.11c3.69-3,7-5.81,10.53-8.44C37.25.42,38.87.93,38.94,3.14,39.12,8.12,39,13.11,39,18.73Z"/><path class="cls-1" d="M64.88,34.57c-2.44-.81-4-1.85-3.8-5,.33-5.43-2.27-9.72-6.63-12.92-1.39-1-3.31-2-1.76-4s3.08-.58,4.49.4C64.11,17.76,67.37,26.87,64.88,34.57Z"/><path class="cls-1" d="M54.68,28.51c-3.37-2.08-6-3.63-8.58-5.37-.69-.47-1-1.5-1.49-2.27,1.08-.33,2.31-1.18,3.21-.91C51.66,21.08,53.7,23.91,54.68,28.51Z"/></g></g></svg>