<svg xmlns="http://www.w3.org/2000/svg" viewBox="0 0 77.88 56.6"><defs><style>.cls-1,.cls-2{fill:#fbb;stroke:#f9e396;stroke-linecap:round;}.cls-1{stroke-linejoin:round;stroke-width:4px;}.cls-2{stroke-miterlimit:10;stroke-width:2px;}</style></defs><g id="Layer_2" data-name="Layer 2"><g id="LOOP_" data-name="LOOP!"><path class="cls-1" d="M39.55,28.46c0,7.48.05,15,0,22.44a15,15,0,0,1-1,3.7,13.48,13.48,0,0,1-3.56-1.31c-4.29-3.15-8.39-6.56-12.72-9.66a9.19,9.19,0,0,0-4.61-1.54c-3.73-.22-7.48-.15-11.22-.05-3,.09-4.4-1.1-4.36-4.18q.13-9.18,0-18.37c0-3.06,1.37-4.73,4.31-4.13,11.51,2.34,19.58-3.6,27.26-10.82C34.85,3.34,36.78,2.83,38.4,2a28.3,28.3,0,0,1,1.1,5.37C39.63,14.4,39.55,21.43,39.55,28.46Z"/><path class="cls-2" d="M76.88,30.33c-.31,9.38-4,17.62-11.78,23.75-1,.76-3.36,1.19-4,.6-1.73-1.63-.09-2.89,1.27-4,13.29-11.38,13.35-29.79.15-41.21-1.31-1.13-3.09-2.3-1.6-4.13,1.64-2,3.26-.35,4.63.8C72.93,12.3,76.59,20.29,76.88,30.33Z"/><path class="cls-2" d="M65.92,31.11a19,19,0,0,1-8.78,15.32c-1,.68-3.37.84-4,.17-1.6-1.58.08-2.69,1.39-3.68,9.33-7,9.35-18.91,0-25.89-1.32-1-3-2.08-1.48-3.69.64-.67,3-.56,4,.07C62.56,16.74,66,23.36,65.92,31.11Z"/><path class="cls-2" d="M55,30.12c-.05,4.05-2.75,8.2-6.34,9.16-1,.27-2.28-.57-3.44-.91.48-1,.68-2.4,1.47-2.93,5.23-3.5,5.18-7.71-.12-11-.82-.51-1.1-1.89-1.63-2.86,1.14-.4,2.4-1.33,3.4-1.11C52.14,21.31,55.07,25.8,55,30.12Z"/></g></g></svg>